<?xml version="1.0" standalone="no"?><!DOCTYPE svg PUBLIC "-//W3C//DTD SVG 1.1//EN" "http://www.w3.org/Graphics/SVG/1.1/DTD/svg11.dtd"><svg t="1631598370290" class="icon" viewBox="0 0 1092 1024" version="1.1" xmlns="http://www.w3.org/2000/svg" p-id="1934" width="85.3125" height="80" xmlns:xlink="http://www.w3.org/1999/xlink"><defs><style type="text/css"></style></defs><path d="M997.966782 229.994887V140.701432a101.177836 101.177836 0 0 0-101.177836-101.177836h-137.794576a26.338357 26.338357 0 0 0 0 52.676715h137.794576a48.822321 48.822321 0 0 1 48.501122 48.501121v88.651056H780.514735l-87.366259-178.265711A90.578253 90.578253 0 0 0 573.66227 8.367246L107.280626 222.2861l2.890795 6.10279a68.415489 68.415489 0 0 1 11.241982-136.188579h197.858879a26.338357 26.338357 0 1 0 0-52.676715H121.413403A121.092204 121.092204 0 0 0 0 160.6158v762.527563a100.856637 100.856637 0 0 0 100.856637 100.856637h890.043757A101.177836 101.177836 0 0 0 1092.07823 922.822164V330.530324a101.177836 101.177836 0 0 0-94.111448-100.535437z m-294.539922 299.036715a38.865137 38.865137 0 0 0-9.957184-15.417575 41.434733 41.434733 0 0 0-15.417575-9.314785 64.239896 64.239896 0 0 0-19.914368-3.211994 51.713116 51.713116 0 0 0-52.355515 38.543937 22.162764 22.162764 0 0 1-7.708788 12.52678 20.235567 20.235567 0 0 1-12.847979 3.854394h-7.708787l-29.871552-5.460391a124.625398 124.625398 0 0 1 13.169179-42.077132 100.856637 100.856637 0 0 1 25.053559-30.192751 94.432647 94.432647 0 0 1 34.047145-18.308371 133.297784 133.297784 0 0 1 41.434733-6.10279 128.479792 128.479792 0 0 1 42.398331 6.745189 92.184251 92.184251 0 0 1 32.119948 19.271969 90.257054 90.257054 0 0 1 21.199166 29.871552 97.965841 97.965841 0 0 1 7.708787 39.186336 108.565424 108.565424 0 0 1-5.460391 34.368344 141.97017 141.97017 0 0 1-14.453976 29.871552 173.126519 173.126519 0 0 1-21.520366 27.623155c-8.029987 8.993585-16.702373 18.30837-25.695958 27.301956l-75.160678 77.087875a189.186493 189.186493 0 0 1 21.520365-5.139192 160.59974 160.59974 0 0 1 20.556767-1.605997h85.760261a19.593168 19.593168 0 0 1 14.453976 5.139192 17.344772 17.344772 0 0 1 5.460391 13.811577v34.368344h-228.372829V770.89481a34.047145 34.047145 0 0 1 2.248396-12.20558 32.119948 32.119948 0 0 1 7.708787-11.563181l101.499036-101.499036c8.351186-8.672386 16.059974-17.023572 22.805163-24.73236a167.987328 167.987328 0 0 0 16.702373-23.447562 101.499035 101.499035 0 0 0 10.599583-23.447562 92.50545 92.50545 0 0 0 3.533194-25.053559 61.027901 61.027901 0 0 0-3.533194-19.914368zM513.919167 738.774862v51.391917H317.023886V456.76172h62.312699V738.774862z m81.584668-682.548893a37.901539 37.901539 0 0 1 50.107118 17.987171l76.124277 155.139348H218.415646z" fill="#FFFFFF" p-id="1935"></path></svg>